# MagicaVoxel @ Ephtracy

# group
o 

# material
mtllib Path.mtl
usemtl palette

# normals
vn -1 0 0
vn 1 0 0
vn 0 0 1
vn 0 0 -1
vn 0 -1 0
vn 0 1 0

# texcoords
vt 0.373047 0.5
vt 0.974609 0.5
vt 0.978516 0.5

# verts
v -0.5 0 0.5
v -0.5 0 -0.5
v -0.5 0.1 0.5
v -0.5 0.1 -0.5
v 0.5 0 0.5
v 0.5 0 -0.5
v 0.5 0.1 0.5
v 0.5 0.1 -0.5
v -0.5 0 0.5
v -0.5 0.1 0.5
v 0.5 0 0.5
v 0.5 0.1 0.5
v -0.5 0 -0.5
v -0.5 0.1 -0.5
v 0.5 0 -0.5
v 0.5 0.1 -0.5
v -0.5 0 0.5
v 0.5 0 0.5
v -0.1 0 0.4
v 0 0 0.4
v 0.3 0 0.4
v 0.4 0 0.4
v -0.3 0 0.3
v -0.1 0 0.3
v 0 0 0.3
v 0.1 0 0.3
v -0.4 0 0.2
v -0.3 0 0.2
v -0.1 0 0.2
v 0.3 0 0.2
v 0.4 0 0.2
v -0.1 0 0.1
v 0 0 0.1
v 0.1 0 0.1
v -0.4 0 0
v -0.3 0 0
v -0.1 0 0
v 0 0 0
v 0.1 0 0
v 0.2 0 0
v -0.3 0 -0.1
v -0.1 0 -0.1
v 0 0 -0.1
v 0.1 0 -0.1
v 0.2 0 -0.1
v 0.3 0 -0.1
v -0.4 0 -0.2
v -0.3 0 -0.2
v 0.2 0 -0.2
v 0.3 0 -0.2
v 0.4 0 -0.2
v -0.3 0 -0.3
v -0.2 0 -0.3
v 0 0 -0.3
v 0.1 0 -0.3
v 0.3 0 -0.3
v 0.4 0 -0.3
v -0.4 0 -0.4
v -0.2 0 -0.4
v 0.1 0 -0.4
v 0.3 0 -0.4
v -0.5 0 -0.5
v 0.5 0 -0.5
v -0.5 0.1 0.5
v 0.5 0.1 0.5
v -0.1 0.1 0.4
v 0 0.1 0.4
v 0.3 0.1 0.4
v 0.4 0.1 0.4
v -0.3 0.1 0.3
v -0.1 0.1 0.3
v 0 0.1 0.3
v 0.1 0.1 0.3
v -0.4 0.1 0.2
v -0.3 0.1 0.2
v -0.1 0.1 0.2
v 0.3 0.1 0.2
v 0.4 0.1 0.2
v -0.1 0.1 0.1
v 0 0.1 0.1
v 0.1 0.1 0.1
v -0.4 0.1 0
v -0.3 0.1 0
v -0.1 0.1 0
v 0 0.1 0
v 0.1 0.1 0
v 0.2 0.1 0
v -0.3 0.1 -0.1
v -0.1 0.1 -0.1
v 0 0.1 -0.1
v 0.1 0.1 -0.1
v 0.2 0.1 -0.1
v 0.3 0.1 -0.1
v -0.4 0.1 -0.2
v -0.3 0.1 -0.2
v 0.2 0.1 -0.2
v 0.3 0.1 -0.2
v 0.4 0.1 -0.2
v -0.3 0.1 -0.3
v -0.2 0.1 -0.3
v 0 0.1 -0.3
v 0.1 0.1 -0.3
v 0.3 0.1 -0.3
v 0.4 0.1 -0.3
v -0.4 0.1 -0.4
v -0.2 0.1 -0.4
v 0.1 0.1 -0.4
v 0.3 0.1 -0.4
v -0.5 0.1 -0.5
v 0.5 0.1 -0.5

# faces
f 3/1/1 2/1/1 1/1/1
f 4/1/1 2/1/1 3/1/1
f 5/1/2 6/1/2 7/1/2
f 7/1/2 6/1/2 8/1/2
f 11/1/3 10/1/3 9/1/3
f 12/1/3 10/1/3 11/1/3
f 13/1/4 14/1/4 15/1/4
f 15/1/4 14/1/4 16/1/4
f 19/1/5 18/1/5 17/1/5
f 20/1/5 18/1/5 19/1/5
f 21/1/5 18/1/5 20/1/5
f 22/1/5 18/1/5 21/1/5
f 23/1/5 19/1/5 17/1/5
f 24/3/5 20/3/5 19/3/5
f 24/1/5 19/1/5 23/1/5
f 25/1/5 21/1/5 20/1/5
f 25/3/5 20/3/5 24/3/5
f 26/1/5 21/1/5 25/1/5
f 27/1/5 23/1/5 17/1/5
f 28/3/5 24/3/5 23/3/5
f 28/1/5 23/1/5 27/1/5
f 29/2/5 25/2/5 24/2/5
f 29/3/5 24/3/5 28/3/5
f 30/1/5 21/1/5 26/1/5
f 30/3/5 22/3/5 21/3/5
f 31/1/5 18/1/5 22/1/5
f 31/3/5 22/3/5 30/3/5
f 32/2/5 25/2/5 29/2/5
f 32/2/5 29/2/5 28/2/5
f 33/3/5 26/3/5 25/3/5
f 33/2/5 25/2/5 32/2/5
f 34/1/5 30/1/5 26/1/5
f 34/3/5 26/3/5 33/3/5
f 34/1/5 31/1/5 30/1/5
f 35/1/5 27/1/5 17/1/5
f 35/3/5 28/3/5 27/3/5
f 36/2/5 32/2/5 28/2/5
f 36/3/5 28/3/5 35/3/5
f 37/3/5 33/3/5 32/3/5
f 37/2/5 32/2/5 36/2/5
f 38/1/5 34/1/5 33/1/5
f 38/3/5 33/3/5 37/3/5
f 39/1/5 31/1/5 34/1/5
f 39/1/5 34/1/5 38/1/5
f 40/1/5 31/1/5 39/1/5
f 41/1/5 36/1/5 35/1/5
f 41/3/5 37/3/5 36/3/5
f 42/1/5 38/1/5 37/1/5
f 42/3/5 37/3/5 41/3/5
f 42/1/5 39/1/5 38/1/5
f 43/1/5 39/1/5 42/1/5
f 44/3/5 40/3/5 39/3/5
f 44/1/5 39/1/5 43/1/5
f 45/1/5 31/1/5 40/1/5
f 45/3/5 40/3/5 44/3/5
f 46/1/5 31/1/5 45/1/5
f 47/1/5 41/1/5 35/1/5
f 47/1/5 35/1/5 17/1/5
f 47/1/5 43/1/5 42/1/5
f 47/1/5 42/1/5 41/1/5
f 48/1/5 43/1/5 47/1/5
f 49/3/5 46/3/5 45/3/5
f 49/2/5 45/2/5 44/2/5
f 50/1/5 31/1/5 46/1/5
f 50/3/5 46/3/5 49/3/5
f 51/1/5 18/1/5 31/1/5
f 51/1/5 31/1/5 50/1/5
f 52/1/5 43/1/5 48/1/5
f 52/3/5 48/3/5 47/3/5
f 53/1/5 43/1/5 52/1/5
f 54/3/5 44/3/5 43/3/5
f 54/1/5 43/1/5 53/1/5
f 55/2/5 50/2/5 49/2/5
f 55/3/5 44/3/5 54/3/5
f 55/2/5 49/2/5 44/2/5
f 56/3/5 51/3/5 50/3/5
f 56/2/5 50/2/5 55/2/5
f 57/1/5 18/1/5 51/1/5
f 57/3/5 51/3/5 56/3/5
f 58/3/5 53/3/5 52/3/5
f 58/3/5 52/3/5 47/3/5
f 58/1/5 47/1/5 17/1/5
f 59/1/5 54/1/5 53/1/5
f 59/3/5 53/3/5 58/3/5
f 59/1/5 55/1/5 54/1/5
f 60/3/5 56/3/5 55/3/5
f 60/1/5 55/1/5 59/1/5
f 61/1/5 57/1/5 56/1/5
f 61/3/5 56/3/5 60/3/5
f 62/1/5 58/1/5 17/1/5
f 62/1/5 60/1/5 59/1/5
f 62/1/5 61/1/5 60/1/5
f 62/1/5 59/1/5 58/1/5
f 63/1/5 18/1/5 57/1/5
f 63/1/5 61/1/5 62/1/5
f 63/1/5 57/1/5 61/1/5
f 64/1/6 65/1/6 66/1/6
f 66/1/6 65/1/6 67/1/6
f 67/1/6 65/1/6 68/1/6
f 68/1/6 65/1/6 69/1/6
f 64/1/6 66/1/6 70/1/6
f 66/3/6 67/3/6 71/3/6
f 70/1/6 66/1/6 71/1/6
f 67/1/6 68/1/6 72/1/6
f 71/3/6 67/3/6 72/3/6
f 72/1/6 68/1/6 73/1/6
f 64/1/6 70/1/6 74/1/6
f 70/3/6 71/3/6 75/3/6
f 74/1/6 70/1/6 75/1/6
f 71/2/6 72/2/6 76/2/6
f 75/3/6 71/3/6 76/3/6
f 73/1/6 68/1/6 77/1/6
f 68/3/6 69/3/6 77/3/6
f 69/1/6 65/1/6 78/1/6
f 77/3/6 69/3/6 78/3/6
f 76/2/6 72/2/6 79/2/6
f 75/2/6 76/2/6 79/2/6
f 72/3/6 73/3/6 80/3/6
f 79/2/6 72/2/6 80/2/6
f 73/1/6 77/1/6 81/1/6
f 80/3/6 73/3/6 81/3/6
f 77/1/6 78/1/6 81/1/6
f 64/1/6 74/1/6 82/1/6
f 74/3/6 75/3/6 82/3/6
f 75/2/6 79/2/6 83/2/6
f 82/3/6 75/3/6 83/3/6
f 79/3/6 80/3/6 84/3/6
f 83/2/6 79/2/6 84/2/6
f 80/1/6 81/1/6 85/1/6
f 84/3/6 80/3/6 85/3/6
f 81/1/6 78/1/6 86/1/6
f 85/1/6 81/1/6 86/1/6
f 86/1/6 78/1/6 87/1/6
f 82/1/6 83/1/6 88/1/6
f 83/3/6 84/3/6 88/3/6
f 84/1/6 85/1/6 89/1/6
f 88/3/6 84/3/6 89/3/6
f 85/1/6 86/1/6 89/1/6
f 89/1/6 86/1/6 90/1/6
f 86/3/6 87/3/6 91/3/6
f 90/1/6 86/1/6 91/1/6
f 87/1/6 78/1/6 92/1/6
f 91/3/6 87/3/6 92/3/6
f 92/1/6 78/1/6 93/1/6
f 82/1/6 88/1/6 94/1/6
f 64/1/6 82/1/6 94/1/6
f 89/1/6 90/1/6 94/1/6
f 88/1/6 89/1/6 94/1/6
f 94/1/6 90/1/6 95/1/6
f 92/3/6 93/3/6 96/3/6
f 91/2/6 92/2/6 96/2/6
f 93/1/6 78/1/6 97/1/6
f 96/3/6 93/3/6 97/3/6
f 78/1/6 65/1/6 98/1/6
f 97/1/6 78/1/6 98/1/6
f 95/1/6 90/1/6 99/1/6
f 94/3/6 95/3/6 99/3/6
f 99/1/6 90/1/6 100/1/6
f 90/3/6 91/3/6 101/3/6
f 100/1/6 90/1/6 101/1/6
f 96/2/6 97/2/6 102/2/6
f 101/3/6 91/3/6 102/3/6
f 91/2/6 96/2/6 102/2/6
f 97/3/6 98/3/6 103/3/6
f 102/2/6 97/2/6 103/2/6
f 98/1/6 65/1/6 104/1/6
f 103/3/6 98/3/6 104/3/6
f 99/3/6 100/3/6 105/3/6
f 94/3/6 99/3/6 105/3/6
f 64/1/6 94/1/6 105/1/6
f 100/1/6 101/1/6 106/1/6
f 105/3/6 100/3/6 106/3/6
f 101/1/6 102/1/6 106/1/6
f 102/3/6 103/3/6 107/3/6
f 106/1/6 102/1/6 107/1/6
f 103/1/6 104/1/6 108/1/6
f 107/3/6 103/3/6 108/3/6
f 64/1/6 105/1/6 109/1/6
f 106/1/6 107/1/6 109/1/6
f 107/1/6 108/1/6 109/1/6
f 105/1/6 106/1/6 109/1/6
f 104/1/6 65/1/6 110/1/6
f 109/1/6 108/1/6 110/1/6
f 108/1/6 104/1/6 110/1/6
