# MagicaVoxel @ Ephtracy

# group
o 

# material
mtllib tree.mtl
usemtl palette

# normals
vn -1 0 0
vn 1 0 0
vn 0 0 1
vn 0 0 -1
vn 0 -1 0
vn 0 1 0

# texcoords
vt 0.302734 0.5
vt 0.583984 0.5

# verts
v -1.6 3.5 0.4
v -1.6 3.5 -0.6
v -1.6 4.5 0.4
v -1.6 4.5 -0.6
v -0.7 2.6 0.0999999
v -0.7 2.6 -0.2
v -0.7 2.9 0.0999999
v -0.7 2.9 -1.19209e-07
v -0.7 3.3 -0.6
v -0.7 3.3 -1.6
v -0.7 3.5 -1.19209e-07
v -0.7 3.5 -0.2
v -0.7 3.5 -0.6
v -0.7 4.3 -0.6
v -0.7 4.3 -1.6
v -0.5 3.5 1.2
v -0.5 3.5 0.4
v -0.5 4.3 -0.6
v -0.5 4.3 -0.8
v -0.5 4.5 1.2
v -0.5 4.5 0.4
v -0.5 4.5 0.2
v -0.5 4.5 -0.6
v -0.5 5 0.2
v -0.5 5 -0.8
v -0.4 2 0.0999999
v -0.4 2 -0.3
v -0.4 2.4 -0.2
v -0.4 2.4 -0.3
v -0.4 2.6 0.0999999
v -0.4 2.6 -0.2
v -0.3 0 0.2
v -0.3 0 -0.1
v -0.3 0.3 0.2
v -0.3 0.3 -0.1
v -0.3 2.6 -0.5
v -0.3 2.6 -0.7
v -0.3 3.3 -0.6
v -0.3 3.3 -0.7
v -0.3 3.5 -0.5
v -0.3 3.5 -0.6
v -0.2 0 -0.1
v -0.2 0 -0.2
v -0.2 0.3 0.2
v -0.2 0.3 -0.1
v -0.2 0.8 0.2
v -0.2 0.8 -0.2
v -0.1 0 0.4
v -0.1 0 0.2
v -0.1 0 -0.2
v -0.1 0 -0.4
v -0.1 0.1 -0.3
v -0.1 0.1 -0.4
v -0.1 0.3 0.4
v -0.1 0.3 0.2
v -0.1 0.3 -0.2
v -0.1 0.3 -0.3
v 0 0 -0.4
v 0 0 -0.5
v 0 0.1 -0.3
v 0 0.1 -0.4
v 0 0.3 0.3
v 0 0.3 0.2
v 0 0.3 -0.2
v 0 0.3 -0.3
v 0 0.5 -0.4
v 0 0.5 -0.5
v 0 0.8 0.2
v 0 0.8 -0.2
v 0 0.9 0.3
v 0 0.9 0.2
v 0 1.7 -0.3
v 0 1.7 -0.4
v 0 1.8 -0.3
v 0 1.8 -0.9
v 0 2 0.0999999
v 0 2 -0.3
v 0 2.2 -0.3
v 0 2.2 -0.9
v 0 2.3 0.2
v 0 2.3 0.0999999
v 0.1 1.9 0.8
v 0.1 1.9 0.2
v 0.1 2.2 -0.5
v 0.1 2.2 -0.9
v 0.1 2.3 0.8
v 0.1 2.3 0.2
v 0.1 2.5 -0.9
v 0.1 2.5 -1.3
v 0.1 2.6 -0.5
v 0.1 2.6 -0.7
v 0.1 2.8 -0.7
v 0.1 2.8 -1.3
v 0.1 3.5 0.2
v 0.1 3.5 -0.6
v 0.1 4 0.2
v 0.1 4 -0.6
v 0.2 2.3 0.8
v 0.2 2.3 0.4
v 0.2 2.8 -1
v 0.2 2.8 -1.3
v 0.2 3 0.8
v 0.2 3 0.4
v 0.2 3.3 -1
v 0.2 3.3 -1.3
v 0.5 3 0.8
v 0.5 3 0.6
v 0.5 3.1 1.2
v 0.5 3.1 0.8
v 0.5 3.3 1
v 0.5 3.3 0.8
v 0.5 3.5 1.2
v 0.5 3.5 1
v 0.5 3.5 0.8
v 0.5 3.5 0.6
v 0.7 2.3 -1.19209e-07
v 0.7 2.3 -0.3
v 0.7 3.2 -1.19209e-07
v 0.7 3.2 -0.3
v 1.1 3.2 -0.1
v 1.1 3.2 -0.3
v 1.1 3.5 -0.1
v 1.1 3.5 -0.3
v -0.4 2.9 -1.19209e-07
v -0.4 2.9 -0.2
v -0.4 3.5 -1.19209e-07
v -0.4 3.5 -0.2
v -0.1 2.4 0.0999999
v -0.1 2.4 -0.2
v -0.1 2.8 -0.5
v -0.1 2.8 -0.7
v -0.1 2.9 0.0999999
v -0.1 2.9 -0.2
v -0.1 3.3 -0.6
v -0.1 3.3 -0.7
v -0.1 3.5 -0.5
v -0.1 3.5 -0.6
v 0 3.5 0.2
v 0 3.5 -0.6
v 0 4 0.2
v 0 4 -0.6
v 0.1 2.3 0.0999999
v 0.1 2.3 -0.3
v 0.1 2.4 0.0999999
v 0.1 2.4 -0.3
v 0.4 0.3 -0.4
v 0.4 0.3 -0.5
v 0.4 0.5 -0.4
v 0.4 0.5 -0.5
v 0.4 1.8 -0.3
v 0.4 1.8 -0.9
v 0.4 2.2 -0.3
v 0.4 2.2 -0.5
v 0.4 2.5 -0.9
v 0.4 2.5 -1.3
v 0.4 2.8 -0.5
v 0.4 2.8 -1
v 0.4 3.3 -1
v 0.4 3.3 -1.3
v 0.5 0 -0.4
v 0.5 0 -0.5
v 0.5 0.1 -0.3
v 0.5 0.1 -0.4
v 0.5 0.3 -0.4
v 0.5 0.3 -0.5
v 0.5 0.9 0.2
v 0.5 0.9 -0.3
v 0.5 1.7 -0.3
v 0.5 1.7 -0.4
v 0.5 1.9 0.8
v 0.5 1.9 0.2
v 0.5 1.9 0.0999999
v 0.5 1.9 -0.3
v 0.5 2.3 0.4
v 0.5 2.3 0.0999999
v 0.5 2.7 0.8
v 0.5 2.7 0.5
v 0.5 3 0.5
v 0.5 3 0.4
v 0.6 0 0.4
v 0.6 0 0.2
v 0.6 0 -0.3
v 0.6 0 -0.4
v 0.6 0.1 -0.3
v 0.6 0.1 -0.4
v 0.6 0.3 0.4
v 0.6 0.3 0.3
v 0.6 0.4 0.2
v 0.6 0.4 -0.3
v 0.6 0.9 0.3
v 0.6 0.9 -0.3
v 0.7 0 0.2
v 0.7 0 -0.3
v 0.7 0.4 0.2
v 0.7 0.4 -0.3
v 0.8 2.7 0.8
v 0.8 2.7 0.5
v 0.8 3 0.6
v 0.8 3 0.5
v 0.8 3.1 1.2
v 0.8 3.1 0.8
v 0.8 3.3 1
v 0.8 3.3 0.8
v 0.8 3.5 1.2
v 0.8 3.5 1
v 0.8 3.5 0.8
v 0.8 3.5 0.6
v 0.9 3.3 -0.6
v 0.9 3.3 -1.6
v 0.9 3.5 -0.6
v 0.9 3.5 -0.7
v 0.9 4 -0.7
v 0.9 4 -0.8
v 0.9 4.3 -0.8
v 0.9 4.3 -1.6
v 1.1 1.9 0.0999999
v 1.1 1.9 -0.3
v 1.1 2.3 0.0999999
v 1.1 2.3 -1.19209e-07
v 1.1 2.9 -0.1
v 1.1 2.9 -0.3
v 1.1 3.2 -1.19209e-07
v 1.1 3.2 -0.1
v 1.1 3.5 1.2
v 1.1 3.5 0.3
v 1.1 4 -0.7
v 1.1 4 -0.8
v 1.1 4.5 1.2
v 1.1 4.5 0.3
v 1.1 4.5 0.2
v 1.1 4.5 -0.7
v 1.1 5 0.2
v 1.1 5 -0.8
v 1.4 2.9 -0.1
v 1.4 2.9 -0.3
v 1.4 3.5 -0.1
v 1.4 3.5 -0.3
v 1.7 3.5 0.3
v 1.7 3.5 -0.7
v 1.7 4.5 0.3
v 1.7 4.5 -0.7
v -0.5 3.5 1.2
v -0.5 4.5 1.2
v 0.5 3.1 1.2
v 0.5 3.5 1.2
v 0.8 3.1 1.2
v 0.8 3.5 1.2
v 1.1 3.5 1.2
v 1.1 4.5 1.2
v 0.1 1.9 0.8
v 0.1 2.3 0.8
v 0.2 2.3 0.8
v 0.2 3 0.8
v 0.5 1.9 0.8
v 0.5 2.7 0.8
v 0.5 3 0.8
v 0.5 3.1 0.8
v 0.5 3.3 0.8
v 0.5 3.5 0.8
v 0.8 2.7 0.8
v 0.8 3.1 0.8
v 0.8 3.3 0.8
v 0.8 3.5 0.8
v -1.6 3.5 0.4
v -1.6 4.5 0.4
v -0.5 3.5 0.4
v -0.5 4.5 0.4
v -0.1 0 0.4
v -0.1 0.3 0.4
v 0.6 0 0.4
v 0.6 0.3 0.4
v 0 0.3 0.3
v 0 0.9 0.3
v 0.6 0.3 0.3
v 0.6 0.9 0.3
v 1.1 3.5 0.3
v 1.1 4.5 0.3
v 1.7 3.5 0.3
v 1.7 4.5 0.3
v -0.5 4.5 0.2
v -0.5 5 0.2
v -0.3 0 0.2
v -0.3 0.3 0.2
v -0.2 0.3 0.2
v -0.2 0.8 0.2
v -0.1 0 0.2
v -0.1 0.3 0.2
v 0 0.3 0.2
v 0 0.8 0.2
v 0 0.9 0.2
v 0 2.3 0.2
v 0.1 1.9 0.2
v 0.1 2.3 0.2
v 0.5 0.9 0.2
v 0.5 1.9 0.2
v 0.6 0 0.2
v 0.6 0.4 0.2
v 0.7 0 0.2
v 0.7 0.4 0.2
v 1.1 4.5 0.2
v 1.1 5 0.2
v -0.7 2.6 0.0999999
v -0.7 2.9 0.0999999
v -0.4 2 0.0999999
v -0.4 2.6 0.0999999
v -0.1 2.4 0.0999999
v -0.1 2.9 0.0999999
v 0 2 0.0999999
v 0 2.3 0.0999999
v 0.1 2.3 0.0999999
v 0.1 2.4 0.0999999
v 0.5 1.9 0.0999999
v 0.5 2.3 0.0999999
v 1.1 1.9 0.0999999
v 1.1 2.3 0.0999999
v -0.7 2.9 -1.19209e-07
v -0.7 3.5 -1.19209e-07
v -0.4 2.9 -1.19209e-07
v -0.4 3.5 -1.19209e-07
v 0.7 2.3 -1.19209e-07
v 0.7 3.2 -1.19209e-07
v 1.1 2.3 -1.19209e-07
v 1.1 3.2 -1.19209e-07
v 1.1 2.9 -0.1
v 1.1 3.2 -0.1
v 1.1 3.5 -0.1
v 1.4 2.9 -0.1
v 1.4 3.5 -0.1
v -0.3 2.6 -0.5
v -0.3 3.5 -0.5
v -0.1 2.8 -0.5
v -0.1 3.5 -0.5
v 0.1 2.2 -0.5
v 0.1 2.6 -0.5
v 0.4 2.2 -0.5
v 0.4 2.8 -0.5
v -0.7 3.3 -0.6
v -0.7 3.5 -0.6
v -0.3 3.3 -0.6
v -0.3 3.5 -0.6
v -0.1 3.3 -0.6
v -0.1 3.5 -0.6
v 0 3.5 -0.6
v 0 4 -0.6
v 0.1 3.5 -0.6
v 0.1 4 -0.6
v 0.9 3.3 -0.6
v 0.9 3.5 -0.6
v 0.2 2.8 -1
v 0.2 3.3 -1
v 0.4 2.8 -1
v 0.4 3.3 -1
v 0.5 3.3 1
v 0.5 3.5 1
v 0.8 3.3 1
v 0.8 3.5 1
v 0.5 3 0.6
v 0.5 3.5 0.6
v 0.8 3 0.6
v 0.8 3.5 0.6
v 0.5 2.7 0.5
v 0.5 3 0.5
v 0.8 2.7 0.5
v 0.8 3 0.5
v 0.2 2.3 0.4
v 0.2 3 0.4
v 0.5 2.3 0.4
v 0.5 3 0.4
v 0 3.5 0.2
v 0 4 0.2
v 0.1 3.5 0.2
v 0.1 4 0.2
v -0.3 0 -0.1
v -0.3 0.3 -0.1
v -0.2 0 -0.1
v -0.2 0.3 -0.1
v -0.7 2.6 -0.2
v -0.7 3.5 -0.2
v -0.4 2.4 -0.2
v -0.4 2.6 -0.2
v -0.4 2.9 -0.2
v -0.4 3.5 -0.2
v -0.2 0 -0.2
v -0.2 0.8 -0.2
v -0.1 0 -0.2
v -0.1 0.3 -0.2
v -0.1 2.4 -0.2
v -0.1 2.9 -0.2
v 0 0.3 -0.2
v 0 0.8 -0.2
v -0.4 2 -0.3
v -0.4 2.4 -0.3
v -0.1 0.1 -0.3
v -0.1 0.3 -0.3
v 0 0.1 -0.3
v 0 0.3 -0.3
v 0 1.7 -0.3
v 0 1.8 -0.3
v 0 2 -0.3
v 0 2.2 -0.3
v 0.1 2.3 -0.3
v 0.1 2.4 -0.3
v 0.4 1.8 -0.3
v 0.4 2.2 -0.3
v 0.5 0.1 -0.3
v 0.5 0.9 -0.3
v 0.5 1.7 -0.3
v 0.5 1.9 -0.3
v 0.6 0 -0.3
v 0.6 0.1 -0.3
v 0.6 0.4 -0.3
v 0.6 0.9 -0.3
v 0.7 0 -0.3
v 0.7 0.4 -0.3
v 0.7 2.3 -0.3
v 0.7 3.2 -0.3
v 1.1 1.9 -0.3
v 1.1 2.9 -0.3
v 1.1 3.2 -0.3
v 1.1 3.5 -0.3
v 1.4 2.9 -0.3
v 1.4 3.5 -0.3
v -0.1 0 -0.4
v -0.1 0.1 -0.4
v 0 0 -0.4
v 0 0.1 -0.4
v 0 0.5 -0.4
v 0 1.7 -0.4
v 0.4 0.3 -0.4
v 0.4 0.5 -0.4
v 0.5 0 -0.4
v 0.5 0.1 -0.4
v 0.5 0.3 -0.4
v 0.5 1.7 -0.4
v 0.6 0 -0.4
v 0.6 0.1 -0.4
v 0 0 -0.5
v 0 0.5 -0.5
v 0.4 0.3 -0.5
v 0.4 0.5 -0.5
v 0.5 0 -0.5
v 0.5 0.3 -0.5
v -1.6 3.5 -0.6
v -1.6 4.5 -0.6
v -0.7 3.5 -0.6
v -0.7 4.3 -0.6
v -0.5 4.3 -0.6
v -0.5 4.5 -0.6
v -0.3 2.6 -0.7
v -0.3 3.3 -0.7
v -0.1 2.8 -0.7
v -0.1 3.3 -0.7
v 0.1 2.6 -0.7
v 0.1 2.8 -0.7
v 0.9 3.5 -0.7
v 0.9 4 -0.7
v 1.1 4 -0.7
v 1.1 4.5 -0.7
v 1.7 3.5 -0.7
v 1.7 4.5 -0.7
v -0.5 4.3 -0.8
v -0.5 5 -0.8
v 0.9 4 -0.8
v 0.9 4.3 -0.8
v 1.1 4 -0.8
v 1.1 5 -0.8
v 0 1.8 -0.9
v 0 2.2 -0.9
v 0.1 2.2 -0.9
v 0.1 2.5 -0.9
v 0.4 1.8 -0.9
v 0.4 2.5 -0.9
v 0.1 2.5 -1.3
v 0.1 2.8 -1.3
v 0.2 2.8 -1.3
v 0.2 3.3 -1.3
v 0.4 2.5 -1.3
v 0.4 3.3 -1.3
v -0.7 3.3 -1.6
v -0.7 4.3 -1.6
v 0.9 3.3 -1.6
v 0.9 4.3 -1.6
v -0.1 0 0.4
v 0.6 0 0.4
v -0.3 0 0.2
v -0.1 0 0.2
v 0.6 0 0.2
v 0.7 0 0.2
v -0.3 0 -0.1
v -0.2 0 -0.1
v -0.2 0 -0.2
v -0.1 0 -0.2
v 0.6 0 -0.3
v 0.7 0 -0.3
v -0.1 0 -0.4
v 0 0 -0.4
v 0.5 0 -0.4
v 0.6 0 -0.4
v 0 0 -0.5
v 0.5 0 -0.5
v 0 1.8 -0.3
v 0.4 1.8 -0.3
v 0 1.8 -0.9
v 0.4 1.8 -0.9
v 0.1 1.9 0.8
v 0.5 1.9 0.8
v 0.1 1.9 0.2
v 0.5 1.9 0.2
v 0.5 1.9 0.0999999
v 1.1 1.9 0.0999999
v 0.5 1.9 -0.3
v 1.1 1.9 -0.3
v -0.4 2 0.0999999
v 0 2 0.0999999
v -0.4 2 -0.3
v 0 2 -0.3
v 0.1 2.5 -0.9
v 0.4 2.5 -0.9
v 0.1 2.5 -1.3
v 0.4 2.5 -1.3
v -0.7 2.6 0.0999999
v -0.4 2.6 0.0999999
v -0.7 2.6 -0.2
v -0.4 2.6 -0.2
v -0.3 2.6 -0.5
v 0.1 2.6 -0.5
v -0.3 2.6 -0.7
v 0.1 2.6 -0.7
v 0.5 2.7 0.8
v 0.8 2.7 0.8
v 0.5 2.7 0.5
v 0.8 2.7 0.5
v 1.1 2.9 -0.1
v 1.4 2.9 -0.1
v 1.1 2.9 -0.3
v 1.4 2.9 -0.3
v 0.5 3.1 1.2
v 0.8 3.1 1.2
v 0.5 3.1 0.8
v 0.8 3.1 0.8
v -0.7 3.3 -0.6
v -0.3 3.3 -0.6
v -0.1 3.3 -0.6
v 0.9 3.3 -0.6
v -0.3 3.3 -0.7
v -0.1 3.3 -0.7
v 0.2 3.3 -1
v 0.4 3.3 -1
v 0.2 3.3 -1.3
v 0.4 3.3 -1.3
v -0.7 3.3 -1.6
v 0.9 3.3 -1.6
v -0.5 3.5 1.2
v 0.5 3.5 1.2
v 0.8 3.5 1.2
v 1.1 3.5 1.2
v 0.5 3.5 1
v 0.8 3.5 1
v 0.5 3.5 0.8
v 0.8 3.5 0.8
v 0.5 3.5 0.6
v 0.8 3.5 0.6
v -1.6 3.5 0.4
v -0.5 3.5 0.4
v 1.1 3.5 0.3
v 1.7 3.5 0.3
v 0 3.5 0.2
v 0.1 3.5 0.2
v -0.7 3.5 -1.19209e-07
v -0.4 3.5 -1.19209e-07
v 1.1 3.5 -0.1
v 1.4 3.5 -0.1
v -0.7 3.5 -0.2
v -0.4 3.5 -0.2
v 1.1 3.5 -0.3
v 1.4 3.5 -0.3
v -0.3 3.5 -0.5
v -0.1 3.5 -0.5
v -1.6 3.5 -0.6
v -0.7 3.5 -0.6
v -0.3 3.5 -0.6
v -0.1 3.5 -0.6
v 0 3.5 -0.6
v 0.1 3.5 -0.6
v 0.9 3.5 -0.6
v 0.9 3.5 -0.7
v 1.7 3.5 -0.7
v 0 4 0.2
v 0.1 4 0.2
v 0 4 -0.6
v 0.1 4 -0.6
v 0.9 4 -0.7
v 1.1 4 -0.7
v 0.9 4 -0.8
v 1.1 4 -0.8
v -0.1 0.1 -0.3
v 0 0.1 -0.3
v 0.5 0.1 -0.3
v 0.6 0.1 -0.3
v -0.1 0.1 -0.4
v 0 0.1 -0.4
v 0.5 0.1 -0.4
v 0.6 0.1 -0.4
v -0.1 0.3 0.4
v 0.6 0.3 0.4
v 0 0.3 0.3
v 0.6 0.3 0.3
v -0.3 0.3 0.2
v -0.2 0.3 0.2
v -0.1 0.3 0.2
v 0 0.3 0.2
v -0.3 0.3 -0.1
v -0.2 0.3 -0.1
v -0.1 0.3 -0.2
v 0 0.3 -0.2
v -0.1 0.3 -0.3
v 0 0.3 -0.3
v 0.4 0.3 -0.4
v 0.5 0.3 -0.4
v 0.4 0.3 -0.5
v 0.5 0.3 -0.5
v 0.6 0.4 0.2
v 0.7 0.4 0.2
v 0.6 0.4 -0.3
v 0.7 0.4 -0.3
v 0 0.5 -0.4
v 0.4 0.5 -0.4
v 0 0.5 -0.5
v 0.4 0.5 -0.5
v -0.2 0.8 0.2
v 0 0.8 0.2
v -0.2 0.8 -0.2
v 0 0.8 -0.2
v 0 0.9 0.3
v 0.6 0.9 0.3
v 0 0.9 0.2
v 0.5 0.9 0.2
v 0.5 0.9 -0.3
v 0.6 0.9 -0.3
v 0 1.7 -0.3
v 0.5 1.7 -0.3
v 0 1.7 -0.4
v 0.5 1.7 -0.4
v 0 2.2 -0.3
v 0.4 2.2 -0.3
v 0.1 2.2 -0.5
v 0.4 2.2 -0.5
v 0 2.2 -0.9
v 0.1 2.2 -0.9
v 0.1 2.3 0.8
v 0.2 2.3 0.8
v 0.2 2.3 0.4
v 0.5 2.3 0.4
v 0 2.3 0.2
v 0.1 2.3 0.2
v 0 2.3 0.0999999
v 0.1 2.3 0.0999999
v 0.5 2.3 0.0999999
v 1.1 2.3 0.0999999
v 0.7 2.3 -1.19209e-07
v 1.1 2.3 -1.19209e-07
v 0.1 2.3 -0.3
v 0.7 2.3 -0.3
v -0.1 2.4 0.0999999
v 0.1 2.4 0.0999999
v -0.4 2.4 -0.2
v -0.1 2.4 -0.2
v -0.4 2.4 -0.3
v 0.1 2.4 -0.3
v -0.1 2.8 -0.5
v 0.4 2.8 -0.5
v -0.1 2.8 -0.7
v 0.1 2.8 -0.7
v 0.2 2.8 -1
v 0.4 2.8 -1
v 0.1 2.8 -1.3
v 0.2 2.8 -1.3
v -0.7 2.9 0.0999999
v -0.1 2.9 0.0999999
v -0.7 2.9 -1.19209e-07
v -0.4 2.9 -1.19209e-07
v -0.4 2.9 -0.2
v -0.1 2.9 -0.2
v 0.2 3 0.8
v 0.5 3 0.8
v 0.5 3 0.6
v 0.8 3 0.6
v 0.5 3 0.5
v 0.8 3 0.5
v 0.2 3 0.4
v 0.5 3 0.4
v 0.7 3.2 -1.19209e-07
v 1.1 3.2 -1.19209e-07
v 1.1 3.2 -0.1
v 0.7 3.2 -0.3
v 1.1 3.2 -0.3
v 0.5 3.3 1
v 0.8 3.3 1
v 0.5 3.3 0.8
v 0.8 3.3 0.8
v -0.7 4.3 -0.6
v -0.5 4.3 -0.6
v -0.5 4.3 -0.8
v 0.9 4.3 -0.8
v -0.7 4.3 -1.6
v 0.9 4.3 -1.6
v -0.5 4.5 1.2
v 1.1 4.5 1.2
v -1.6 4.5 0.4
v -0.5 4.5 0.4
v 1.1 4.5 0.3
v 1.7 4.5 0.3
v -0.5 4.5 0.2
v 1.1 4.5 0.2
v -1.6 4.5 -0.6
v -0.5 4.5 -0.6
v 1.1 4.5 -0.7
v 1.7 4.5 -0.7
v -0.5 5 0.2
v 1.1 5 0.2
v -0.5 5 -0.8
v 1.1 5 -0.8

# faces
f 3/2/1 2/2/1 1/2/1
f 4/2/1 2/2/1 3/2/1
f 7/1/1 6/1/1 5/1/1
f 8/1/1 6/1/1 7/1/1
f 11/1/1 6/1/1 8/1/1
f 12/1/1 6/1/1 11/1/1
f 13/2/1 10/2/1 9/2/1
f 14/2/1 10/2/1 13/2/1
f 15/2/1 10/2/1 14/2/1
f 20/2/1 17/2/1 16/2/1
f 21/2/1 17/2/1 20/2/1
f 23/2/1 19/2/1 18/2/1
f 24/2/1 23/2/1 22/2/1
f 25/2/1 19/2/1 23/2/1
f 25/2/1 23/2/1 24/2/1
f 28/1/1 27/1/1 26/1/1
f 29/1/1 27/1/1 28/1/1
f 30/1/1 28/1/1 26/1/1
f 31/1/1 28/1/1 30/1/1
f 34/1/1 33/1/1 32/1/1
f 35/1/1 33/1/1 34/1/1
f 38/1/1 37/1/1 36/1/1
f 39/1/1 37/1/1 38/1/1
f 40/1/1 38/1/1 36/1/1
f 41/1/1 38/1/1 40/1/1
f 45/1/1 43/1/1 42/1/1
f 46/1/1 45/1/1 44/1/1
f 47/1/1 43/1/1 45/1/1
f 47/1/1 45/1/1 46/1/1
f 52/1/1 51/1/1 50/1/1
f 53/1/1 51/1/1 52/1/1
f 54/1/1 49/1/1 48/1/1
f 55/1/1 49/1/1 54/1/1
f 56/1/1 52/1/1 50/1/1
f 57/1/1 52/1/1 56/1/1
f 61/1/1 59/1/1 58/1/1
f 65/1/1 61/1/1 60/1/1
f 66/1/1 59/1/1 61/1/1
f 66/1/1 65/1/1 64/1/1
f 66/1/1 61/1/1 65/1/1
f 67/1/1 59/1/1 66/1/1
f 68/1/1 63/1/1 62/1/1
f 69/1/1 66/1/1 64/1/1
f 70/1/1 68/1/1 62/1/1
f 70/1/1 69/1/1 68/1/1
f 71/1/1 69/1/1 70/1/1
f 72/1/1 66/1/1 69/1/1
f 72/1/1 69/1/1 71/1/1
f 73/1/1 66/1/1 72/1/1
f 74/1/1 72/1/1 71/1/1
f 76/1/1 74/1/1 71/1/1
f 76/1/1 75/1/1 74/1/1
f 77/1/1 75/1/1 76/1/1
f 78/1/1 75/1/1 77/1/1
f 79/1/1 75/1/1 78/1/1
f 80/1/1 76/1/1 71/1/1
f 81/1/1 76/1/1 80/1/1
f 86/1/1 83/1/1 82/1/1
f 87/1/1 83/1/1 86/1/1
f 88/1/1 85/1/1 84/1/1
f 90/1/1 88/1/1 84/1/1
f 90/1/1 89/1/1 88/1/1
f 91/1/1 89/1/1 90/1/1
f 92/1/1 89/1/1 91/1/1
f 93/1/1 89/1/1 92/1/1
f 96/2/1 95/2/1 94/2/1
f 97/2/1 95/2/1 96/2/1
f 102/1/1 99/1/1 98/1/1
f 103/1/1 99/1/1 102/1/1
f 104/1/1 101/1/1 100/1/1
f 105/1/1 101/1/1 104/1/1
f 109/1/1 107/1/1 106/1/1
f 110/1/1 109/1/1 108/1/1
f 111/1/1 107/1/1 109/1/1
f 111/1/1 109/1/1 110/1/1
f 112/1/1 110/1/1 108/1/1
f 113/1/1 110/1/1 112/1/1
f 114/1/1 107/1/1 111/1/1
f 115/1/1 107/1/1 114/1/1
f 118/1/1 117/1/1 116/1/1
f 119/1/1 117/1/1 118/1/1
f 122/1/1 121/1/1 120/1/1
f 123/1/1 121/1/1 122/1/1
f 124/1/2 125/1/2 126/1/2
f 126/1/2 125/1/2 127/1/2
f 128/1/2 129/1/2 132/1/2
f 132/1/2 129/1/2 133/1/2
f 130/1/2 131/1/2 134/1/2
f 134/1/2 131/1/2 135/1/2
f 130/1/2 134/1/2 136/1/2
f 136/1/2 134/1/2 137/1/2
f 138/2/2 139/2/2 140/2/2
f 140/2/2 139/2/2 141/2/2
f 142/1/2 143/1/2 144/1/2
f 144/1/2 143/1/2 145/1/2
f 146/1/2 147/1/2 148/1/2
f 148/1/2 147/1/2 149/1/2
f 150/1/2 151/1/2 152/1/2
f 152/1/2 151/1/2 153/1/2
f 153/1/2 151/1/2 154/1/2
f 153/1/2 154/1/2 156/1/2
f 154/1/2 155/1/2 156/1/2
f 156/1/2 155/1/2 157/1/2
f 157/1/2 155/1/2 158/1/2
f 158/1/2 155/1/2 159/1/2
f 160/1/2 161/1/2 163/1/2
f 163/1/2 161/1/2 164/1/2
f 162/1/2 163/1/2 164/1/2
f 164/1/2 161/1/2 165/1/2
f 162/1/2 164/1/2 167/1/2
f 167/1/2 164/1/2 168/1/2
f 166/1/2 167/1/2 168/1/2
f 168/1/2 164/1/2 169/1/2
f 166/1/2 168/1/2 171/1/2
f 171/1/2 168/1/2 172/1/2
f 172/1/2 168/1/2 173/1/2
f 170/1/2 171/1/2 174/1/2
f 171/1/2 172/1/2 174/1/2
f 174/1/2 172/1/2 175/1/2
f 170/1/2 174/1/2 176/1/2
f 176/1/2 174/1/2 177/1/2
f 177/1/2 174/1/2 178/1/2
f 178/1/2 174/1/2 179/1/2
f 182/1/2 183/1/2 184/1/2
f 184/1/2 183/1/2 185/1/2
f 180/1/2 181/1/2 186/1/2
f 186/1/2 181/1/2 187/1/2
f 187/1/2 181/1/2 188/1/2
f 187/1/2 188/1/2 190/1/2
f 188/1/2 189/1/2 190/1/2
f 190/1/2 189/1/2 191/1/2
f 192/1/2 193/1/2 194/1/2
f 194/1/2 193/1/2 195/1/2
f 196/1/2 197/1/2 198/1/2
f 198/1/2 197/1/2 199/1/2
f 196/1/2 198/1/2 201/1/2
f 200/1/2 201/1/2 202/1/2
f 201/1/2 198/1/2 203/1/2
f 202/1/2 201/1/2 203/1/2
f 200/1/2 202/1/2 204/1/2
f 204/1/2 202/1/2 205/1/2
f 203/1/2 198/1/2 206/1/2
f 206/1/2 198/1/2 207/1/2
f 208/2/2 209/2/2 210/2/2
f 210/2/2 209/2/2 211/2/2
f 211/2/2 209/2/2 212/2/2
f 212/2/2 209/2/2 213/2/2
f 213/2/2 209/2/2 214/2/2
f 214/2/2 209/2/2 215/2/2
f 216/1/2 217/1/2 218/1/2
f 218/1/2 217/1/2 219/1/2
f 219/1/2 217/1/2 220/1/2
f 220/1/2 217/1/2 221/1/2
f 219/1/2 220/1/2 222/1/2
f 222/1/2 220/1/2 223/1/2
f 224/2/2 225/2/2 228/2/2
f 228/2/2 225/2/2 229/2/2
f 226/2/2 227/2/2 231/2/2
f 230/2/2 231/2/2 232/2/2
f 231/2/2 227/2/2 233/2/2
f 232/2/2 231/2/2 233/2/2
f 234/1/2 235/1/2 236/1/2
f 236/1/2 235/1/2 237/1/2
f 238/2/2 239/2/2 240/2/2
f 240/2/2 239/2/2 241/2/2
f 245/2/3 243/2/3 242/2/3
f 246/1/3 245/1/3 244/1/3
f 247/2/3 243/2/3 245/2/3
f 247/1/3 245/1/3 246/1/3
f 248/2/3 243/2/3 247/2/3
f 249/2/3 243/2/3 248/2/3
f 252/1/3 251/1/3 250/1/3
f 254/1/3 252/1/3 250/1/3
f 254/1/3 253/1/3 252/1/3
f 255/1/3 253/1/3 254/1/3
f 256/1/3 253/1/3 255/1/3
f 260/1/3 256/1/3 255/1/3
f 260/1/3 257/1/3 256/1/3
f 261/1/3 257/1/3 260/1/3
f 262/1/3 259/1/3 258/1/3
f 263/1/3 259/1/3 262/1/3
f 266/2/3 265/2/3 264/2/3
f 267/2/3 265/2/3 266/2/3
f 270/1/3 269/1/3 268/1/3
f 271/1/3 269/1/3 270/1/3
f 274/1/3 273/1/3 272/1/3
f 275/1/3 273/1/3 274/1/3
f 278/2/3 277/2/3 276/2/3
f 279/2/3 277/2/3 278/2/3
f 284/1/3 283/1/3 282/1/3
f 286/1/3 284/1/3 282/1/3
f 286/1/3 285/1/3 284/1/3
f 287/1/3 285/1/3 286/1/3
f 288/1/3 285/1/3 287/1/3
f 289/1/3 285/1/3 288/1/3
f 292/1/3 291/1/3 290/1/3
f 293/1/3 291/1/3 292/1/3
f 294/1/3 292/1/3 290/1/3
f 295/1/3 292/1/3 294/1/3
f 298/1/3 297/1/3 296/1/3
f 299/1/3 297/1/3 298/1/3
f 300/2/3 281/2/3 280/2/3
f 301/2/3 281/2/3 300/2/3
f 305/1/3 303/1/3 302/1/3
f 306/1/3 305/1/3 304/1/3
f 307/1/3 303/1/3 305/1/3
f 307/1/3 305/1/3 306/1/3
f 308/1/3 306/1/3 304/1/3
f 309/1/3 306/1/3 308/1/3
f 310/1/3 306/1/3 309/1/3
f 311/1/3 306/1/3 310/1/3
f 314/1/3 313/1/3 312/1/3
f 315/1/3 313/1/3 314/1/3
f 318/1/3 317/1/3 316/1/3
f 319/1/3 317/1/3 318/1/3
f 322/1/3 321/1/3 320/1/3
f 323/1/3 321/1/3 322/1/3
f 327/1/3 325/1/3 324/1/3
f 327/1/3 326/1/3 325/1/3
f 328/1/3 326/1/3 327/1/3
f 331/1/3 330/1/3 329/1/3
f 332/1/3 330/1/3 331/1/3
f 334/1/3 331/1/3 329/1/3
f 335/1/3 334/1/3 333/1/3
f 336/1/3 331/1/3 334/1/3
f 336/1/3 334/1/3 335/1/3
f 339/2/3 338/2/3 337/2/3
f 340/2/3 338/2/3 339/2/3
f 343/2/3 342/2/3 341/2/3
f 345/2/3 343/2/3 341/2/3
f 345/2/3 344/2/3 343/2/3
f 346/2/3 344/2/3 345/2/3
f 347/2/3 345/2/3 341/2/3
f 348/2/3 345/2/3 347/2/3
f 351/1/3 350/1/3 349/1/3
f 352/1/3 350/1/3 351/1/3
f 353/1/4 354/1/4 355/1/4
f 355/1/4 354/1/4 356/1/4
f 357/1/4 358/1/4 359/1/4
f 359/1/4 358/1/4 360/1/4
f 361/1/4 362/1/4 363/1/4
f 363/1/4 362/1/4 364/1/4
f 365/1/4 366/1/4 367/1/4
f 367/1/4 366/1/4 368/1/4
f 369/2/4 370/2/4 371/2/4
f 371/2/4 370/2/4 372/2/4
f 373/1/4 374/1/4 375/1/4
f 375/1/4 374/1/4 376/1/4
f 377/1/4 378/1/4 380/1/4
f 380/1/4 378/1/4 381/1/4
f 381/1/4 378/1/4 382/1/4
f 383/1/4 384/1/4 385/1/4
f 385/1/4 384/1/4 386/1/4
f 379/1/4 380/1/4 387/1/4
f 380/1/4 381/1/4 387/1/4
f 387/1/4 381/1/4 388/1/4
f 386/1/4 384/1/4 389/1/4
f 389/1/4 384/1/4 390/1/4
f 393/1/4 394/1/4 395/1/4
f 395/1/4 394/1/4 396/1/4
f 391/1/4 392/1/4 399/1/4
f 399/1/4 392/1/4 400/1/4
f 400/1/4 392/1/4 401/1/4
f 401/1/4 392/1/4 402/1/4
f 397/1/4 398/1/4 403/1/4
f 400/1/4 401/1/4 404/1/4
f 397/1/4 403/1/4 407/1/4
f 403/1/4 404/1/4 407/1/4
f 407/1/4 404/1/4 408/1/4
f 405/1/4 406/1/4 410/1/4
f 410/1/4 406/1/4 411/1/4
f 411/1/4 406/1/4 412/1/4
f 409/1/4 410/1/4 413/1/4
f 410/1/4 411/1/4 413/1/4
f 413/1/4 411/1/4 414/1/4
f 408/1/4 404/1/4 415/1/4
f 404/1/4 401/1/4 415/1/4
f 408/1/4 415/1/4 417/1/4
f 415/1/4 416/1/4 417/1/4
f 417/1/4 416/1/4 418/1/4
f 418/1/4 416/1/4 419/1/4
f 419/1/4 420/1/4 421/1/4
f 418/1/4 419/1/4 421/1/4
f 421/1/4 420/1/4 422/1/4
f 423/1/4 424/1/4 425/1/4
f 425/1/4 424/1/4 426/1/4
f 427/1/4 428/1/4 430/1/4
f 429/1/4 430/1/4 433/1/4
f 430/1/4 428/1/4 434/1/4
f 433/1/4 430/1/4 434/1/4
f 431/1/4 432/1/4 435/1/4
f 435/1/4 432/1/4 436/1/4
f 437/1/4 438/1/4 439/1/4
f 439/1/4 438/1/4 440/1/4
f 437/1/4 439/1/4 441/1/4
f 441/1/4 439/1/4 442/1/4
f 443/2/4 444/2/4 445/2/4
f 445/2/4 444/2/4 446/2/4
f 446/2/4 444/2/4 447/2/4
f 447/2/4 444/2/4 448/2/4
f 449/1/4 450/1/4 451/1/4
f 451/1/4 450/1/4 452/1/4
f 449/1/4 451/1/4 453/1/4
f 453/1/4 451/1/4 454/1/4
f 455/2/4 456/2/4 457/2/4
f 455/2/4 457/2/4 459/2/4
f 457/2/4 458/2/4 459/2/4
f 459/2/4 458/2/4 460/2/4
f 461/2/4 462/2/4 464/2/4
f 463/2/4 464/2/4 465/2/4
f 464/2/4 462/2/4 466/2/4
f 465/2/4 464/2/4 466/2/4
f 467/1/4 468/1/4 469/1/4
f 467/1/4 469/1/4 471/1/4
f 469/1/4 470/1/4 471/1/4
f 471/1/4 470/1/4 472/1/4
f 473/1/4 474/1/4 475/1/4
f 473/1/4 475/1/4 477/1/4
f 475/1/4 476/1/4 477/1/4
f 477/1/4 476/1/4 478/1/4
f 479/2/4 480/2/4 481/2/4
f 481/2/4 480/2/4 482/2/4
f 486/1/5 484/1/5 483/1/5
f 487/1/5 484/1/5 486/1/5
f 489/1/5 486/1/5 485/1/5
f 489/1/5 488/1/5 487/1/5
f 489/1/5 487/1/5 486/1/5
f 490/1/5 488/1/5 489/1/5
f 491/1/5 488/1/5 490/1/5
f 492/1/5 488/1/5 491/1/5
f 493/1/5 488/1/5 492/1/5
f 494/1/5 488/1/5 493/1/5
f 495/1/5 493/1/5 492/1/5
f 496/1/5 493/1/5 495/1/5
f 497/1/5 493/1/5 496/1/5
f 498/1/5 493/1/5 497/1/5
f 499/1/5 497/1/5 496/1/5
f 500/1/5 497/1/5 499/1/5
f 503/1/5 502/1/5 501/1/5
f 504/1/5 502/1/5 503/1/5
f 507/1/5 506/1/5 505/1/5
f 508/1/5 506/1/5 507/1/5
f 511/1/5 510/1/5 509/1/5
f 512/1/5 510/1/5 511/1/5
f 515/1/5 514/1/5 513/1/5
f 516/1/5 514/1/5 515/1/5
f 519/1/5 518/1/5 517/1/5
f 520/1/5 518/1/5 519/1/5
f 523/1/5 522/1/5 521/1/5
f 524/1/5 522/1/5 523/1/5
f 527/1/5 526/1/5 525/1/5
f 528/1/5 526/1/5 527/1/5
f 531/1/5 530/1/5 529/1/5
f 532/1/5 530/1/5 531/1/5
f 535/1/5 534/1/5 533/1/5
f 536/1/5 534/1/5 535/1/5
f 539/1/5 538/1/5 537/1/5
f 540/1/5 538/1/5 539/1/5
f 545/2/5 542/2/5 541/2/5
f 546/2/5 544/2/5 543/2/5
f 547/2/5 544/2/5 546/2/5
f 547/2/5 546/2/5 545/2/5
f 548/2/5 544/2/5 547/2/5
f 549/2/5 547/2/5 545/2/5
f 550/2/5 544/2/5 548/2/5
f 551/2/5 545/2/5 541/2/5
f 551/2/5 550/2/5 549/2/5
f 551/2/5 549/2/5 545/2/5
f 552/2/5 544/2/5 550/2/5
f 552/2/5 550/2/5 551/2/5
f 557/2/5 554/2/5 553/2/5
f 558/2/5 556/2/5 555/2/5
f 559/2/5 557/2/5 553/2/5
f 559/2/5 558/2/5 557/2/5
f 560/2/5 556/2/5 558/2/5
f 560/2/5 558/2/5 559/2/5
f 561/2/5 559/2/5 553/2/5
f 562/2/5 556/2/5 560/2/5
f 564/2/5 561/2/5 553/2/5
f 564/2/5 562/2/5 561/2/5
f 565/2/5 556/2/5 562/2/5
f 565/2/5 564/2/5 563/2/5
f 565/2/5 562/2/5 564/2/5
f 567/2/5 565/2/5 563/2/5
f 567/2/5 566/2/5 565/2/5
f 568/2/5 566/2/5 567/2/5
f 569/2/5 567/2/5 563/2/5
f 570/2/5 567/2/5 569/2/5
f 571/2/5 566/2/5 568/2/5
f 572/2/5 566/2/5 571/2/5
f 573/2/5 569/2/5 563/2/5
f 574/2/5 567/2/5 570/2/5
f 575/2/5 571/2/5 568/2/5
f 576/2/5 566/2/5 572/2/5
f 577/2/5 574/2/5 573/2/5
f 577/2/5 567/2/5 574/2/5
f 578/2/5 567/2/5 577/2/5
f 579/2/5 573/2/5 563/2/5
f 579/2/5 577/2/5 573/2/5
f 580/2/5 577/2/5 579/2/5
f 581/2/5 577/2/5 580/2/5
f 582/2/5 567/2/5 578/2/5
f 583/2/5 567/2/5 582/2/5
f 584/2/5 575/2/5 568/2/5
f 584/2/5 576/2/5 575/2/5
f 585/2/5 576/2/5 584/2/5
f 586/2/5 576/2/5 585/2/5
f 587/2/5 566/2/5 576/2/5
f 587/2/5 576/2/5 586/2/5
f 590/2/5 589/2/5 588/2/5
f 591/2/5 589/2/5 590/2/5
f 594/2/5 593/2/5 592/2/5
f 595/2/5 593/2/5 594/2/5
f 596/1/6 597/1/6 600/1/6
f 600/1/6 597/1/6 601/1/6
f 598/1/6 599/1/6 602/1/6
f 602/1/6 599/1/6 603/1/6
f 604/1/6 605/1/6 606/1/6
f 606/1/6 605/1/6 607/1/6
f 604/1/6 606/1/6 610/1/6
f 610/1/6 606/1/6 611/1/6
f 608/1/6 609/1/6 612/1/6
f 612/1/6 609/1/6 613/1/6
f 614/1/6 615/1/6 616/1/6
f 616/1/6 615/1/6 617/1/6
f 618/1/6 619/1/6 620/1/6
f 620/1/6 619/1/6 621/1/6
f 622/1/6 623/1/6 624/1/6
f 624/1/6 623/1/6 625/1/6
f 626/1/6 627/1/6 628/1/6
f 628/1/6 627/1/6 629/1/6
f 630/1/6 631/1/6 632/1/6
f 632/1/6 631/1/6 633/1/6
f 634/1/6 635/1/6 636/1/6
f 636/1/6 635/1/6 637/1/6
f 637/1/6 635/1/6 638/1/6
f 638/1/6 635/1/6 639/1/6
f 640/1/6 641/1/6 642/1/6
f 642/1/6 641/1/6 643/1/6
f 644/1/6 645/1/6 646/1/6
f 646/1/6 645/1/6 647/1/6
f 644/1/6 646/1/6 648/1/6
f 648/1/6 646/1/6 649/1/6
f 650/1/6 651/1/6 652/1/6
f 650/1/6 652/1/6 655/1/6
f 652/1/6 653/1/6 655/1/6
f 654/1/6 655/1/6 656/1/6
f 655/1/6 653/1/6 657/1/6
f 656/1/6 655/1/6 657/1/6
f 657/1/6 653/1/6 658/1/6
f 658/1/6 659/1/6 660/1/6
f 657/1/6 658/1/6 660/1/6
f 660/1/6 659/1/6 661/1/6
f 657/1/6 660/1/6 662/1/6
f 662/1/6 660/1/6 663/1/6
f 664/1/6 665/1/6 667/1/6
f 666/1/6 667/1/6 668/1/6
f 667/1/6 665/1/6 669/1/6
f 668/1/6 667/1/6 669/1/6
f 670/1/6 671/1/6 672/1/6
f 672/1/6 671/1/6 673/1/6
f 673/1/6 671/1/6 674/1/6
f 674/1/6 671/1/6 675/1/6
f 673/1/6 674/1/6 676/1/6
f 676/1/6 674/1/6 677/1/6
f 678/1/6 679/1/6 680/1/6
f 680/1/6 679/1/6 681/1/6
f 681/1/6 679/1/6 682/1/6
f 682/1/6 679/1/6 683/1/6
f 684/1/6 685/1/6 686/1/6
f 684/1/6 686/1/6 688/1/6
f 686/1/6 687/1/6 688/1/6
f 688/1/6 687/1/6 689/1/6
f 684/1/6 688/1/6 690/1/6
f 690/1/6 688/1/6 691/1/6
f 692/1/6 693/1/6 694/1/6
f 692/1/6 694/1/6 695/1/6
f 695/1/6 694/1/6 696/1/6
f 697/1/6 698/1/6 699/1/6
f 699/1/6 698/1/6 700/1/6
f 701/2/6 702/2/6 703/2/6
f 701/2/6 703/2/6 705/2/6
f 703/2/6 704/2/6 705/2/6
f 705/2/6 704/2/6 706/2/6
f 707/2/6 708/2/6 710/2/6
f 710/2/6 708/2/6 711/2/6
f 709/2/6 710/2/6 711/2/6
f 709/2/6 711/2/6 713/2/6
f 711/2/6 712/2/6 713/2/6
f 713/2/6 712/2/6 714/2/6
f 709/2/6 713/2/6 715/2/6
f 715/2/6 713/2/6 716/2/6
f 714/2/6 712/2/6 717/2/6
f 717/2/6 712/2/6 718/2/6
f 719/2/6 720/2/6 721/2/6
f 721/2/6 720/2/6 722/2/6
