# MagicaVoxel @ Ephtracy

# group
o 

# material
mtllib Fance2.mtl
usemtl palette

# normals
vn -1 0 0
vn 1 0 0
vn 0 0 1
vn 0 0 -1
vn 0 -1 0
vn 0 1 0

# texcoords
vt 0.974609 0.5
vt 0.986328 0.5

# verts
v -0.9 0 0.1
v -0.9 0 -0.2
v -0.9 2 0.1
v -0.9 2 -0.2
v -0.6 0 0.1
v -0.6 0 -0.2
v -0.6 0.3 0
v -0.6 0.3 -0.1
v -0.6 0.6 0
v -0.6 0.6 -0.1
v -0.6 0.9 0
v -0.6 0.9 -0.1
v -0.6 1.2 0
v -0.6 1.2 -0.1
v -0.6 1.5 0
v -0.6 1.5 -0.1
v -0.6 1.8 0
v -0.6 1.8 -0.1
v -0.6 2 0.1
v -0.6 2 -0.2
v 1 0.3 0
v 1 0.3 -0.1
v 1 0.6 0
v 1 0.6 -0.1
v 1 0.9 0
v 1 0.9 -0.1
v 1 1.2 0
v 1 1.2 -0.1
v 1 1.5 0
v 1 1.5 -0.1
v 1 1.8 0
v 1 1.8 -0.1
v -0.9 0 0.1
v -0.9 2 0.1
v -0.6 0 0.1
v -0.6 2 0.1
v -0.6 0.3 0
v -0.6 0.6 0
v -0.6 0.9 0
v -0.6 1.2 0
v -0.6 1.5 0
v -0.6 1.8 0
v 1 0.3 0
v 1 0.6 0
v 1 0.9 0
v 1 1.2 0
v 1 1.5 0
v 1 1.8 0
v -0.6 0.3 -0.1
v -0.6 0.6 -0.1
v -0.6 0.9 -0.1
v -0.6 1.2 -0.1
v -0.6 1.5 -0.1
v -0.6 1.8 -0.1
v 1 0.3 -0.1
v 1 0.6 -0.1
v 1 0.9 -0.1
v 1 1.2 -0.1
v 1 1.5 -0.1
v 1 1.8 -0.1
v -0.9 0 -0.2
v -0.9 2 -0.2
v -0.6 0 -0.2
v -0.6 2 -0.2
v -0.9 0 0.1
v -0.6 0 0.1
v -0.9 0 -0.2
v -0.6 0 -0.2
v -0.6 0.3 0
v 1 0.3 0
v -0.6 0.3 -0.1
v 1 0.3 -0.1
v -0.6 0.9 0
v 1 0.9 0
v -0.6 0.9 -0.1
v 1 0.9 -0.1
v -0.6 1.5 0
v 1 1.5 0
v -0.6 1.5 -0.1
v 1 1.5 -0.1
v -0.6 0.6 0
v 1 0.6 0
v -0.6 0.6 -0.1
v 1 0.6 -0.1
v -0.6 1.2 0
v 1 1.2 0
v -0.6 1.2 -0.1
v 1 1.2 -0.1
v -0.6 1.8 0
v 1 1.8 0
v -0.6 1.8 -0.1
v 1 1.8 -0.1
v -0.9 2 0.1
v -0.6 2 0.1
v -0.9 2 -0.2
v -0.6 2 -0.2

# faces
f 3/2/1 2/2/1 1/2/1
f 4/2/1 2/2/1 3/2/1
f 5/2/2 6/2/2 7/2/2
f 7/2/2 6/2/2 8/2/2
f 5/2/2 7/2/2 9/2/2
f 8/2/2 6/2/2 10/2/2
f 5/2/2 9/2/2 11/2/2
f 9/2/2 10/2/2 11/2/2
f 10/2/2 6/2/2 12/2/2
f 11/2/2 10/2/2 12/2/2
f 5/2/2 11/2/2 13/2/2
f 12/2/2 6/2/2 14/2/2
f 5/2/2 13/2/2 15/2/2
f 13/2/2 14/2/2 15/2/2
f 14/2/2 6/2/2 16/2/2
f 15/2/2 14/2/2 16/2/2
f 5/2/2 15/2/2 17/2/2
f 16/2/2 6/2/2 18/2/2
f 5/2/2 17/2/2 19/2/2
f 17/2/2 18/2/2 19/2/2
f 18/2/2 6/2/2 20/2/2
f 19/2/2 18/2/2 20/2/2
f 21/1/2 22/1/2 23/1/2
f 23/1/2 22/1/2 24/1/2
f 25/1/2 26/1/2 27/1/2
f 27/1/2 26/1/2 28/1/2
f 29/1/2 30/1/2 31/1/2
f 31/1/2 30/1/2 32/1/2
f 35/2/3 34/2/3 33/2/3
f 36/2/3 34/2/3 35/2/3
f 43/1/3 38/1/3 37/1/3
f 44/1/3 38/1/3 43/1/3
f 45/1/3 40/1/3 39/1/3
f 46/1/3 40/1/3 45/1/3
f 47/1/3 42/1/3 41/1/3
f 48/1/3 42/1/3 47/1/3
f 49/1/4 50/1/4 55/1/4
f 55/1/4 50/1/4 56/1/4
f 51/1/4 52/1/4 57/1/4
f 57/1/4 52/1/4 58/1/4
f 53/1/4 54/1/4 59/1/4
f 59/1/4 54/1/4 60/1/4
f 61/2/4 62/2/4 63/2/4
f 63/2/4 62/2/4 64/2/4
f 67/2/5 66/2/5 65/2/5
f 68/2/5 66/2/5 67/2/5
f 71/1/5 70/1/5 69/1/5
f 72/1/5 70/1/5 71/1/5
f 75/1/5 74/1/5 73/1/5
f 76/1/5 74/1/5 75/1/5
f 79/1/5 78/1/5 77/1/5
f 80/1/5 78/1/5 79/1/5
f 81/1/6 82/1/6 83/1/6
f 83/1/6 82/1/6 84/1/6
f 85/1/6 86/1/6 87/1/6
f 87/1/6 86/1/6 88/1/6
f 89/1/6 90/1/6 91/1/6
f 91/1/6 90/1/6 92/1/6
f 93/2/6 94/2/6 95/2/6
f 95/2/6 94/2/6 96/2/6
