# MagicaVoxel @ Ephtracy

# group
o 

# material
mtllib WC.mtl
usemtl palette

# normals
vn -1 0 0
vn 1 0 0
vn 0 0 1
vn 0 0 -1
vn 0 -1 0
vn 0 1 0

# texcoords
vt 0.779297 0.5
vt 0.974609 0.5
vt 0.986328 0.5
vt 0.994141 0.5

# verts
v -2 0 2
v -2 0 -2
v -2 1.4 2
v -2 1.4 -2
v -2 2.1 2
v -2 2.1 -2
v -2 3.4 2
v -2 3.4 -2
v -2 3.5 2
v -2 3.5 -2
v -1.6 1.5 2.2
v -1.6 1.5 2
v -1.6 1.6 2.2
v -1.6 1.6 2
v 0.4 1.5 2.2
v 0.4 1.5 2
v 0.4 1.6 2.2
v 0.4 1.6 2
v 1.9 0.1 1.9
v 1.9 0.1 -1.9
v 1.9 1.4 1.9
v 1.9 1.4 -1.9
v 1.9 2.1 1.9
v 1.9 2.1 -1.9
v 1.9 3.4 1.9
v 1.9 3.4 -1.9
v -1.9 0.1 1.9
v -1.9 0.1 -1.9
v -1.9 1.4 1.9
v -1.9 1.4 -1.9
v -1.9 2.1 1.9
v -1.9 2.1 -1.9
v -1.9 3.4 1.9
v -1.9 3.4 -1.9
v -1.5 1.5 2.1
v -1.5 1.5 2
v -1.5 1.6 2.1
v -1.5 1.6 2
v -1.4 1.5 2.2
v -1.4 1.5 2.1
v -1.4 1.6 2.2
v -1.4 1.6 2.1
v 0.5 1.5 2.1
v 0.5 1.5 2
v 0.5 1.6 2.1
v 0.5 1.6 2
v 0.6 1.5 2.2
v 0.6 1.5 2.1
v 0.6 1.6 2.2
v 0.6 1.6 2.1
v 2 0 2
v 2 0 -2
v 2 1.4 2
v 2 1.4 -2
v 2 2.1 2
v 2 2.1 -2
v 2 3.4 2
v 2 3.4 -2
v 2 3.5 2
v 2 3.5 -2
v -1.6 1.5 2.2
v -1.6 1.6 2.2
v -1.4 1.5 2.2
v -1.4 1.6 2.2
v 0.4 1.5 2.2
v 0.4 1.6 2.2
v 0.6 1.5 2.2
v 0.6 1.6 2.2
v -2 0 2
v -2 1.4 2
v -2 2.1 2
v -2 3.4 2
v -2 3.5 2
v -1.9 1.4 2
v -1.9 2.1 2
v -1.7 0 2
v -1.7 3.1 2
v -1.6 1.5 2
v -1.6 1.6 2
v -1.5 1.5 2
v -1.5 1.6 2
v -1.3 1.4 2
v -1.3 1.5 2
v -1.2 1.5 2
v -1.2 1.8 2
v -1.1 1.8 2
v -1.1 2 2
v -1.1 2.4 2
v -1.1 2.7 2
v -1 2 2
v -1 2.2 2
v -0.9 2 2
v -0.9 2.2 2
v -0.8 1.8 2
v -0.8 2 2
v -0.8 2.4 2
v -0.8 2.7 2
v -0.7 1.5 2
v -0.7 1.8 2
v -0.6 1.4 2
v -0.6 1.5 2
v -0.3 0 2
v -0.3 3.1 2
v 0.3 0 2
v 0.3 3.1 2
v 0.4 1.5 2
v 0.4 1.6 2
v 0.5 1.5 2
v 0.5 1.6 2
v 0.7 2.1 2
v 0.7 2.2 2
v 0.8 1.8 2
v 0.8 2.1 2
v 0.9 1.6 2
v 0.9 1.8 2
v 0.9 2.4 2
v 0.9 2.7 2
v 1 1.4 2
v 1 1.6 2
v 1.1 1.4 2
v 1.1 1.6 2
v 1.2 1.6 2
v 1.2 1.8 2
v 1.2 2.4 2
v 1.2 2.7 2
v 1.3 1.8 2
v 1.3 2.1 2
v 1.4 2.1 2
v 1.4 2.2 2
v 1.7 0 2
v 1.7 3.1 2
v 1.9 1.4 2
v 1.9 2.1 2
v 2 0 2
v 2 1.4 2
v 2 2.1 2
v 2 3.4 2
v 2 3.5 2
v -1.9 0.1 -1.9
v -1.9 1.4 -1.9
v -1.9 2.1 -1.9
v -1.9 3.4 -1.9
v 1.9 0.1 -1.9
v 1.9 1.4 -1.9
v 1.9 2.1 -1.9
v 1.9 3.4 -1.9
v -1.5 1.5 2.1
v -1.5 1.6 2.1
v -1.4 1.5 2.1
v -1.4 1.6 2.1
v 0.5 1.5 2.1
v 0.5 1.6 2.1
v 0.6 1.5 2.1
v 0.6 1.6 2.1
v -1.9 0.1 1.9
v -1.9 1.4 1.9
v -1.9 2.1 1.9
v -1.9 3.4 1.9
v -1.7 0.1 1.9
v -1.7 3.1 1.9
v -1.3 1.4 1.9
v -1.3 1.5 1.9
v -1.2 1.5 1.9
v -1.2 1.8 1.9
v -1.1 1.8 1.9
v -1.1 2 1.9
v -1.1 2.4 1.9
v -1.1 2.7 1.9
v -1 2 1.9
v -1 2.2 1.9
v -0.9 2 1.9
v -0.9 2.2 1.9
v -0.8 1.8 1.9
v -0.8 2 1.9
v -0.8 2.4 1.9
v -0.8 2.7 1.9
v -0.7 1.5 1.9
v -0.7 1.8 1.9
v -0.6 1.4 1.9
v -0.6 1.5 1.9
v -0.3 0.1 1.9
v -0.3 3.1 1.9
v 0.3 0.1 1.9
v 0.3 3.1 1.9
v 0.7 2.1 1.9
v 0.7 2.2 1.9
v 0.8 1.8 1.9
v 0.8 2.1 1.9
v 0.9 1.6 1.9
v 0.9 1.8 1.9
v 0.9 2.4 1.9
v 0.9 2.7 1.9
v 1 1.4 1.9
v 1 1.6 1.9
v 1.1 1.4 1.9
v 1.1 1.6 1.9
v 1.2 1.6 1.9
v 1.2 1.8 1.9
v 1.2 2.4 1.9
v 1.2 2.7 1.9
v 1.3 1.8 1.9
v 1.3 2.1 1.9
v 1.4 2.1 1.9
v 1.4 2.2 1.9
v 1.7 0.1 1.9
v 1.7 3.1 1.9
v 1.9 0.1 1.9
v 1.9 1.4 1.9
v 1.9 2.1 1.9
v 1.9 3.4 1.9
v -2 0 -2
v -2 1.4 -2
v -2 2.1 -2
v -2 3.4 -2
v -2 3.5 -2
v 2 0 -2
v 2 1.4 -2
v 2 2.1 -2
v 2 3.4 -2
v 2 3.5 -2
v -2 0 2
v -1.7 0 2
v -0.3 0 2
v 0.3 0 2
v 1.7 0 2
v 2 0 2
v -1.7 0 1.9
v -0.3 0 1.9
v 0.3 0 1.9
v 1.7 0 1.9
v -2 0 -2
v 2 0 -2
v -1.6 1.5 2.2
v -1.4 1.5 2.2
v 0.4 1.5 2.2
v 0.6 1.5 2.2
v -1.5 1.5 2.1
v -1.4 1.5 2.1
v 0.5 1.5 2.1
v 0.6 1.5 2.1
v -1.6 1.5 2
v -1.5 1.5 2
v 0.4 1.5 2
v 0.5 1.5 2
v -1.9 3.4 1.9
v 1.9 3.4 1.9
v -1.9 3.4 -1.9
v 1.9 3.4 -1.9
v -1.9 0.1 1.9
v -1.7 0.1 1.9
v -0.3 0.1 1.9
v 0.3 0.1 1.9
v 1.7 0.1 1.9
v 1.9 0.1 1.9
v -1.9 0.1 -1.9
v 1.9 0.1 -1.9
v -1.6 1.6 2.2
v -1.4 1.6 2.2
v 0.4 1.6 2.2
v 0.6 1.6 2.2
v -1.5 1.6 2.1
v -1.4 1.6 2.1
v 0.5 1.6 2.1
v 0.6 1.6 2.1
v -1.6 1.6 2
v -1.5 1.6 2
v 0.4 1.6 2
v 0.5 1.6 2
v -2 3.5 2
v 2 3.5 2
v -2 3.5 -2
v 2 3.5 -2

# faces
f 3/2/1 2/2/1 1/2/1
f 4/2/1 2/2/1 3/2/1
f 5/1/1 4/1/1 3/1/1
f 6/1/1 4/1/1 5/1/1
f 7/2/1 6/2/1 5/2/1
f 8/2/1 6/2/1 7/2/1
f 9/1/1 8/1/1 7/1/1
f 10/1/1 8/1/1 9/1/1
f 13/4/1 12/4/1 11/4/1
f 14/4/1 12/4/1 13/4/1
f 17/4/1 16/4/1 15/4/1
f 18/4/1 16/4/1 17/4/1
f 21/2/1 20/2/1 19/2/1
f 22/2/1 20/2/1 21/2/1
f 23/1/1 22/1/1 21/1/1
f 24/1/1 22/1/1 23/1/1
f 25/2/1 24/2/1 23/2/1
f 26/2/1 24/2/1 25/2/1
f 27/2/2 28/2/2 29/2/2
f 29/2/2 28/2/2 30/2/2
f 29/1/2 30/1/2 31/1/2
f 31/1/2 30/1/2 32/1/2
f 31/2/2 32/2/2 33/2/2
f 33/2/2 32/2/2 34/2/2
f 35/4/2 36/4/2 37/4/2
f 37/4/2 36/4/2 38/4/2
f 39/4/2 40/4/2 41/4/2
f 41/4/2 40/4/2 42/4/2
f 43/4/2 44/4/2 45/4/2
f 45/4/2 44/4/2 46/4/2
f 47/4/2 48/4/2 49/4/2
f 49/4/2 48/4/2 50/4/2
f 51/2/2 52/2/2 53/2/2
f 53/2/2 52/2/2 54/2/2
f 53/1/2 54/1/2 55/1/2
f 55/1/2 54/1/2 56/1/2
f 55/2/2 56/2/2 57/2/2
f 57/2/2 56/2/2 58/2/2
f 57/1/2 58/1/2 59/1/2
f 59/1/2 58/1/2 60/1/2
f 63/4/3 62/4/3 61/4/3
f 64/4/3 62/4/3 63/4/3
f 67/4/3 66/4/3 65/4/3
f 68/4/3 66/4/3 67/4/3
f 74/2/3 70/2/3 69/2/3
f 74/1/3 71/1/3 70/1/3
f 75/2/3 72/2/3 71/2/3
f 75/1/3 71/1/3 74/1/3
f 76/2/3 74/2/3 69/2/3
f 76/2/3 75/2/3 74/2/3
f 77/2/3 72/2/3 75/2/3
f 77/2/3 75/2/3 76/2/3
f 78/3/3 77/3/3 76/3/3
f 79/3/3 77/3/3 78/3/3
f 80/3/3 78/3/3 76/3/3
f 81/3/3 77/3/3 79/3/3
f 82/3/3 80/3/3 76/3/3
f 82/3/3 81/3/3 80/3/3
f 83/3/3 81/3/3 82/3/3
f 84/1/3 83/1/3 82/1/3
f 84/3/3 81/3/3 83/3/3
f 85/3/3 77/3/3 81/3/3
f 85/3/3 81/3/3 84/3/3
f 86/1/3 85/1/3 84/1/3
f 86/3/3 77/3/3 85/3/3
f 87/3/3 77/3/3 86/3/3
f 88/3/3 77/3/3 87/3/3
f 89/3/3 77/3/3 88/3/3
f 90/1/3 87/1/3 86/1/3
f 90/3/3 88/3/3 87/3/3
f 91/3/3 88/3/3 90/3/3
f 92/1/3 90/1/3 86/1/3
f 92/1/3 91/1/3 90/1/3
f 93/3/3 88/3/3 91/3/3
f 93/1/3 91/1/3 92/1/3
f 94/1/3 86/1/3 84/1/3
f 94/1/3 92/1/3 86/1/3
f 95/3/3 93/3/3 92/3/3
f 95/1/3 92/1/3 94/1/3
f 96/3/3 88/3/3 93/3/3
f 96/3/3 93/3/3 95/3/3
f 96/1/3 89/1/3 88/1/3
f 97/3/3 77/3/3 89/3/3
f 97/1/3 89/1/3 96/1/3
f 98/1/3 84/1/3 82/1/3
f 98/1/3 94/1/3 84/1/3
f 99/3/3 95/3/3 94/3/3
f 99/1/3 94/1/3 98/1/3
f 99/3/3 96/3/3 95/3/3
f 99/3/3 97/3/3 96/3/3
f 100/3/3 82/3/3 76/3/3
f 100/1/3 98/1/3 82/1/3
f 101/3/3 99/3/3 98/3/3
f 101/1/3 98/1/3 100/1/3
f 102/3/3 100/3/3 76/3/3
f 102/3/3 101/3/3 100/3/3
f 103/2/3 72/2/3 77/2/3
f 103/3/3 101/3/3 102/3/3
f 103/3/3 77/3/3 97/3/3
f 103/3/3 99/3/3 101/3/3
f 103/3/3 97/3/3 99/3/3
f 104/2/3 103/2/3 102/2/3
f 105/2/3 72/2/3 103/2/3
f 105/2/3 103/2/3 104/2/3
f 106/3/3 105/3/3 104/3/3
f 107/3/3 105/3/3 106/3/3
f 108/3/3 106/3/3 104/3/3
f 109/3/3 105/3/3 107/3/3
f 110/3/3 105/3/3 109/3/3
f 110/3/3 109/3/3 108/3/3
f 111/3/3 105/3/3 110/3/3
f 112/3/3 110/3/3 108/3/3
f 113/1/3 111/1/3 110/1/3
f 113/3/3 110/3/3 112/3/3
f 114/3/3 112/3/3 108/3/3
f 115/1/3 113/1/3 112/1/3
f 115/3/3 112/3/3 114/3/3
f 116/3/3 105/3/3 111/3/3
f 117/3/3 105/3/3 116/3/3
f 118/3/3 108/3/3 104/3/3
f 118/3/3 114/3/3 108/3/3
f 119/1/3 115/1/3 114/1/3
f 119/3/3 114/3/3 118/3/3
f 120/3/3 118/3/3 104/3/3
f 120/1/3 119/1/3 118/1/3
f 121/1/3 115/1/3 119/1/3
f 121/1/3 119/1/3 120/1/3
f 122/3/3 121/3/3 120/3/3
f 122/1/3 115/1/3 121/1/3
f 123/1/3 113/1/3 115/1/3
f 123/1/3 115/1/3 122/1/3
f 124/1/3 117/1/3 116/1/3
f 124/3/3 116/3/3 111/3/3
f 125/3/3 105/3/3 117/3/3
f 125/1/3 117/1/3 124/1/3
f 126/1/3 113/1/3 123/1/3
f 126/3/3 123/3/3 122/3/3
f 127/1/3 111/1/3 113/1/3
f 127/1/3 113/1/3 126/1/3
f 128/3/3 127/3/3 126/3/3
f 128/1/3 111/1/3 127/1/3
f 129/3/3 124/3/3 111/3/3
f 129/1/3 111/1/3 128/1/3
f 129/3/3 125/3/3 124/3/3
f 130/3/3 128/3/3 126/3/3
f 130/3/3 122/3/3 120/3/3
f 130/3/3 129/3/3 128/3/3
f 130/3/3 120/3/3 104/3/3
f 130/3/3 126/3/3 122/3/3
f 131/2/3 72/2/3 105/2/3
f 131/3/3 129/3/3 130/3/3
f 131/3/3 125/3/3 129/3/3
f 131/3/3 105/3/3 125/3/3
f 132/2/3 131/2/3 130/2/3
f 133/2/3 131/2/3 132/2/3
f 134/2/3 132/2/3 130/2/3
f 135/1/3 133/1/3 132/1/3
f 135/2/3 132/2/3 134/2/3
f 136/2/3 131/2/3 133/2/3
f 136/1/3 133/1/3 135/1/3
f 137/1/3 73/1/3 72/1/3
f 137/2/3 131/2/3 136/2/3
f 137/2/3 72/2/3 131/2/3
f 138/1/3 73/1/3 137/1/3
f 143/2/3 140/2/3 139/2/3
f 144/1/3 141/1/3 140/1/3
f 144/2/3 140/2/3 143/2/3
f 145/2/3 142/2/3 141/2/3
f 145/1/3 141/1/3 144/1/3
f 146/2/3 142/2/3 145/2/3
f 147/4/4 148/4/4 149/4/4
f 149/4/4 148/4/4 150/4/4
f 151/4/4 152/4/4 153/4/4
f 153/4/4 152/4/4 154/4/4
f 155/2/4 156/2/4 159/2/4
f 157/2/4 158/2/4 159/2/4
f 156/2/4 157/2/4 159/2/4
f 159/2/4 158/2/4 160/2/4
f 159/3/4 160/3/4 161/3/4
f 161/3/4 160/3/4 162/3/4
f 161/1/4 162/1/4 163/1/4
f 162/3/4 160/3/4 163/3/4
f 163/3/4 160/3/4 164/3/4
f 163/1/4 164/1/4 165/1/4
f 164/3/4 160/3/4 165/3/4
f 165/3/4 160/3/4 166/3/4
f 166/3/4 160/3/4 167/3/4
f 167/3/4 160/3/4 168/3/4
f 165/1/4 166/1/4 169/1/4
f 166/3/4 167/3/4 169/3/4
f 169/3/4 167/3/4 170/3/4
f 165/1/4 169/1/4 171/1/4
f 169/1/4 170/1/4 171/1/4
f 170/3/4 167/3/4 172/3/4
f 171/1/4 170/1/4 172/1/4
f 163/1/4 165/1/4 173/1/4
f 165/1/4 171/1/4 173/1/4
f 171/3/4 172/3/4 174/3/4
f 173/1/4 171/1/4 174/1/4
f 172/3/4 167/3/4 175/3/4
f 174/3/4 172/3/4 175/3/4
f 167/1/4 168/1/4 175/1/4
f 168/3/4 160/3/4 176/3/4
f 175/1/4 168/1/4 176/1/4
f 161/1/4 163/1/4 177/1/4
f 163/1/4 173/1/4 177/1/4
f 173/3/4 174/3/4 178/3/4
f 177/1/4 173/1/4 178/1/4
f 174/3/4 175/3/4 178/3/4
f 175/3/4 176/3/4 178/3/4
f 159/3/4 161/3/4 179/3/4
f 161/1/4 177/1/4 179/1/4
f 177/3/4 178/3/4 180/3/4
f 179/1/4 177/1/4 180/1/4
f 159/3/4 179/3/4 181/3/4
f 179/3/4 180/3/4 181/3/4
f 160/2/4 158/2/4 182/2/4
f 181/3/4 180/3/4 182/3/4
f 178/3/4 176/3/4 182/3/4
f 180/3/4 178/3/4 182/3/4
f 176/3/4 160/3/4 182/3/4
f 181/2/4 182/2/4 183/2/4
f 182/2/4 158/2/4 184/2/4
f 183/2/4 182/2/4 184/2/4
f 183/3/4 184/3/4 185/3/4
f 185/3/4 184/3/4 186/3/4
f 183/3/4 185/3/4 187/3/4
f 185/1/4 186/1/4 188/1/4
f 187/3/4 185/3/4 188/3/4
f 183/3/4 187/3/4 189/3/4
f 187/1/4 188/1/4 190/1/4
f 189/3/4 187/3/4 190/3/4
f 186/3/4 184/3/4 191/3/4
f 191/3/4 184/3/4 192/3/4
f 183/3/4 189/3/4 193/3/4
f 189/1/4 190/1/4 194/1/4
f 193/3/4 189/3/4 194/3/4
f 183/3/4 193/3/4 195/3/4
f 193/1/4 194/1/4 195/1/4
f 194/1/4 190/1/4 196/1/4
f 195/1/4 194/1/4 196/1/4
f 195/3/4 196/3/4 197/3/4
f 196/1/4 190/1/4 197/1/4
f 190/1/4 188/1/4 198/1/4
f 197/1/4 190/1/4 198/1/4
f 186/3/4 191/3/4 199/3/4
f 191/1/4 192/1/4 199/1/4
f 192/3/4 184/3/4 200/3/4
f 199/1/4 192/1/4 200/1/4
f 198/1/4 188/1/4 201/1/4
f 197/3/4 198/3/4 201/3/4
f 188/1/4 186/1/4 202/1/4
f 201/1/4 188/1/4 202/1/4
f 201/3/4 202/3/4 203/3/4
f 202/1/4 186/1/4 203/1/4
f 186/3/4 199/3/4 204/3/4
f 203/1/4 186/1/4 204/1/4
f 199/3/4 200/3/4 204/3/4
f 195/3/4 197/3/4 205/3/4
f 197/3/4 201/3/4 205/3/4
f 203/3/4 204/3/4 205/3/4
f 201/3/4 203/3/4 205/3/4
f 183/3/4 195/3/4 205/3/4
f 184/2/4 158/2/4 206/2/4
f 205/3/4 204/3/4 206/3/4
f 204/3/4 200/3/4 206/3/4
f 200/3/4 184/3/4 206/3/4
f 205/2/4 206/2/4 207/2/4
f 207/2/4 206/2/4 208/2/4
f 208/2/4 206/2/4 209/2/4
f 206/2/4 158/2/4 210/2/4
f 209/2/4 206/2/4 210/2/4
f 211/2/4 212/2/4 216/2/4
f 212/1/4 213/1/4 217/1/4
f 216/2/4 212/2/4 217/2/4
f 213/2/4 214/2/4 218/2/4
f 217/1/4 213/1/4 218/1/4
f 214/1/4 215/1/4 219/1/4
f 218/2/4 214/2/4 219/2/4
f 219/1/4 215/1/4 220/1/4
f 227/2/5 222/2/5 221/2/5
f 227/3/5 223/3/5 222/3/5
f 228/2/5 224/2/5 223/2/5
f 228/3/5 223/3/5 227/3/5
f 229/3/5 225/3/5 224/3/5
f 229/2/5 224/2/5 228/2/5
f 230/2/5 226/2/5 225/2/5
f 230/3/5 225/3/5 229/3/5
f 231/2/5 229/2/5 228/2/5
f 231/2/5 228/2/5 227/2/5
f 231/2/5 230/2/5 229/2/5
f 231/2/5 227/2/5 221/2/5
f 232/2/5 226/2/5 230/2/5
f 232/2/5 230/2/5 231/2/5
f 237/4/5 234/4/5 233/4/5
f 238/4/5 234/4/5 237/4/5
f 239/4/5 236/4/5 235/4/5
f 240/4/5 236/4/5 239/4/5
f 241/4/5 237/4/5 233/4/5
f 242/4/5 237/4/5 241/4/5
f 243/4/5 239/4/5 235/4/5
f 244/4/5 239/4/5 243/4/5
f 247/1/5 246/1/5 245/1/5
f 248/1/5 246/1/5 247/1/5
f 249/2/6 250/2/6 255/2/6
f 253/2/6 254/2/6 255/2/6
f 252/2/6 253/2/6 255/2/6
f 251/2/6 252/2/6 255/2/6
f 250/2/6 251/2/6 255/2/6
f 255/2/6 254/2/6 256/2/6
f 257/4/6 258/4/6 261/4/6
f 261/4/6 258/4/6 262/4/6
f 259/4/6 260/4/6 263/4/6
f 263/4/6 260/4/6 264/4/6
f 257/4/6 261/4/6 265/4/6
f 265/4/6 261/4/6 266/4/6
f 259/4/6 263/4/6 267/4/6
f 267/4/6 263/4/6 268/4/6
f 269/1/6 270/1/6 271/1/6
f 271/1/6 270/1/6 272/1/6
