# MagicaVoxel @ Ephtracy

# group
o 

# material
mtllib mc-1.mtl
usemtl palette

# normals
vn -1 0 0
vn 1 0 0
vn 0 0 1
vn 0 0 -1
vn 0 -1 0
vn 0 1 0

# texcoords
vt 0.841797 0.5
vt 0.958984 0.5
vt 0.994141 0.5

# verts
v -0.2 -0.4 0.1
v -0.2 -0.4 -0.1
v -0.2 0.4 0.1
v -0.2 0.4 -0.1
v 0.3 -0.4 0.1
v 0.3 -0.4 -0.1
v 0.3 0.4 0.1
v 0.3 0.4 -0.1
v -0.2 -0.4 0.1
v -0.2 0.4 0.1
v 0 -0.2 0.1
v 0 0.2 0.1
v 0 0.4 0.1
v 0.1 -0.2 0.1
v 0.1 0.2 0.1
v 0.1 0.4 0.1
v 0.3 -0.4 0.1
v 0.3 0.4 0.1
v -0.2 -0.4 -0.1
v -0.2 0.4 -0.1
v 0.3 -0.4 -0.1
v 0.3 0.4 -0.1
v -0.2 -0.4 0.1
v 0.3 -0.4 0.1
v -0.2 -0.4 -0.1
v 0.3 -0.4 -0.1
v -0.2 0.4 0.1
v 0 0.4 0.1
v 0.1 0.4 0.1
v 0.3 0.4 0.1
v 0 0.4 0
v 0.1 0.4 0
v -0.2 0.4 -0.1
v 0.3 0.4 -0.1

# faces
f 3/3/1 2/3/1 1/3/1
f 4/3/1 2/3/1 3/3/1
f 5/3/2 6/3/2 7/3/2
f 7/3/2 6/3/2 8/3/2
f 11/3/3 10/3/3 9/3/3
f 12/3/3 10/3/3 11/3/3
f 13/3/3 10/3/3 12/3/3
f 14/3/3 11/3/3 9/3/3
f 14/2/3 12/2/3 11/2/3
f 15/1/3 13/1/3 12/1/3
f 15/2/3 12/2/3 14/2/3
f 16/1/3 13/1/3 15/1/3
f 17/3/3 14/3/3 9/3/3
f 17/3/3 15/3/3 14/3/3
f 17/3/3 16/3/3 15/3/3
f 18/3/3 16/3/3 17/3/3
f 19/3/4 20/3/4 21/3/4
f 21/3/4 20/3/4 22/3/4
f 25/3/5 24/3/5 23/3/5
f 26/3/5 24/3/5 25/3/5
f 27/3/6 28/3/6 31/3/6
f 28/1/6 29/1/6 31/1/6
f 29/3/6 30/3/6 32/3/6
f 31/1/6 29/1/6 32/1/6
f 27/3/6 31/3/6 33/3/6
f 31/3/6 32/3/6 33/3/6
f 32/3/6 30/3/6 34/3/6
f 33/3/6 32/3/6 34/3/6
